<?xml version="1.0" encoding="UTF-8"?>
<svg width="732px" height="219px" viewBox="0 0 732 219" version="1.1" xmlns="http://www.w3.org/2000/svg" xmlns:xlink="http://www.w3.org/1999/xlink">
    <!-- Generator: Sketch 52.2 (67145) - http://www.bohemiancoding.com/sketch -->
    <title>Group 36</title>
    <desc>Created with Sketch.</desc>
    <defs>
        <polygon id="path-1" points="0.5196 0.728 78.2886 0.728 78.2886 177.9131 0.5196 177.9131"></polygon>
        <polygon id="path-3" points="0 219.272 731.939 219.272 731.939 1 0 1"></polygon>
    </defs>
    <g id="Page-1" stroke="none" stroke-width="1" fill="none" fill-rule="evenodd">
        <g id="Group-36" transform="translate(0.000000, -1.000000)">
            <path d="M246.9927,178.1851 L203.8447,178.1851 L203.8447,92.0451 C203.5077,85.3511 199.7447,81.9271 192.5557,81.7711 L169.4727,81.7711 L169.4727,178.1851 L126.3247,178.1851 L126.3247,81.7711 L102.2427,81.7711 C95.3817,81.7711 92.1217,85.0401 92.4577,91.5771 L92.4577,178.1851 L48.8077,178.1851 L48.8077,73.5991 C48.8077,68.9331 49.6417,64.6511 51.3157,60.7621 C52.9867,56.8721 55.3297,53.5231 58.3387,50.7231 C61.5167,47.7661 65.1947,45.5081 69.3777,43.9511 C73.7237,42.2401 78.4097,41.3831 83.4287,41.3831 L212.6257,41.3831 C217.9777,41.3831 222.7437,42.2401 226.9227,43.9511 C231.2707,45.6641 234.8667,47.9981 237.7107,50.9541 C240.7237,53.7581 242.9777,57.1821 244.4857,61.2271 C246.1597,65.1181 246.9927,69.2431 246.9927,73.5991 L246.9927,178.1851 Z" id="Fill-1" fill="#004A6C"></path>
            <g id="Group-5" transform="translate(254.000000, 0.272000)">
                <mask id="mask-2" fill="white">
                    <use xlink:href="#path-1"></use>
                </mask>
                <g id="Clip-4"></g>
                <path d="M36.3906,177.9131 C12.4736,177.9131 0.5196,167.8761 0.5196,147.7981 L0.5196,0.7271 L43.9166,0.7271 L43.9166,41.1111 L78.2886,41.1111 L78.2886,81.4991 L43.9166,81.4991 L43.9166,129.5911 C43.9166,134.8821 46.0906,137.5271 50.4386,137.5271 L78.0366,137.5271 L78.0366,177.9131 L36.3906,177.9131 Z" id="Fill-3" fill="#004A6C" mask="url(#mask-2)"></path>
            </g>
            <path d="M471.0186,145.5005 C471.0186,167.2905 459.4786,178.1855 436.4006,178.1855 L380.7046,178.1855 L380.7046,219.2715 L337.5556,219.2715 L337.5556,41.3835 L436.4006,41.3835 C459.4786,41.3835 471.0186,51.9665 471.0186,73.1315 L471.0186,145.5005 Z M416.3276,137.7995 C423.8536,137.7995 427.6156,134.3785 427.6156,127.5265 L427.6156,92.0445 C427.6156,85.1945 424.0216,81.7715 416.8306,81.7715 L380.9546,81.7715 L380.9546,137.7995 L416.3276,137.7995 Z" id="Fill-6" fill="#004A6C"></path>
            <path d="M0,62.1465 C0,50.7775 9.904,41.5625 22.12,41.5625 C34.336,41.5625 44.24,50.7775 44.24,62.1465 C44.24,73.5145 34.336,82.7305 22.12,82.7305 C9.904,82.7305 0,73.5145 0,62.1465 M14.374,62.1465 C14.374,58.1655 17.842,54.9375 22.12,54.9375 C26.398,54.9375 29.866,58.1655 29.866,62.1465 C29.866,66.1265 26.398,69.3545 22.12,69.3545 C17.842,69.3545 14.374,66.1265 14.374,62.1465" id="Fill-8" fill="#00A9CC"></path>
            <mask id="mask-4" fill="white">
                <use xlink:href="#path-3"></use>
            </mask>
            <g id="Clip-11"></g>
            <polygon id="Fill-10" fill="#004A6C" mask="url(#mask-4)" points="487.772 178.76 489.514 178.76 489.514 41.085 487.772 41.085"></polygon>
            <path d="M511.4863,79.8599 L517.4713,79.8599 C522.9613,79.8599 525.2103,75.7649 524.8503,65.6859 C524.5813,57.9909 523.5013,52.8609 517.4713,52.8609 L511.4863,52.8609 L511.4863,79.8599 Z M507.7513,83.2349 L507.7513,49.4859 L517.0203,49.4859 C527.5503,49.4859 528.9913,58.0359 528.7203,66.3599 C528.4503,74.5949 526.8313,83.2349 517.6963,83.2349 L507.7513,83.2349 Z" id="Fill-12" fill="#004A6C" mask="url(#mask-4)"></path>
            <polygon id="Fill-13" fill="#004A6C" mask="url(#mask-4)" points="535.966 83.235 539.7 83.235 539.7 49.486 535.966 49.486"></polygon>
            <path d="M568.0049,83.5049 L565.1259,83.5049 L565.1259,78.2399 L565.0359,78.2399 C564.0459,82.0649 561.0299,84.0449 557.2959,84.0449 C547.2609,84.0449 546.4959,74.0549 546.4959,66.1359 C546.4959,58.2609 547.8919,48.8109 557.6549,48.8109 C564.0909,48.8109 567.7799,52.9959 567.6909,59.2959 L563.9109,59.2959 C563.8659,55.1559 562.1099,52.2759 557.8359,52.1859 C550.4559,52.0509 550.3659,60.5109 550.3659,66.2709 C550.3659,71.4009 550.0969,80.3549 556.7559,80.6699 C563.6859,80.9849 564.3159,74.6399 564.2709,69.2859 L556.7559,69.2859 L556.7559,65.9109 L568.0049,65.9109 L568.0049,83.5049 Z" id="Fill-14" fill="#004A6C" mask="url(#mask-4)"></path>
            <polygon id="Fill-15" fill="#004A6C" mask="url(#mask-4)" points="575.971 83.235 579.706 83.235 579.706 49.486 575.971 49.486"></polygon>
            <polygon id="Fill-16" fill="#004A6C" mask="url(#mask-4)" points="584.7451 49.4864 605.9401 49.4864 605.9401 52.8614 597.2101 52.8614 597.2101 83.2354 593.4751 83.2354 593.4751 52.8614 584.7451 52.8614"></polygon>
            <path d="M616.6514,52.1861 L616.5604,52.1861 L612.1064,70.1411 L621.0154,70.1411 L616.6514,52.1861 Z M614.2204,49.4861 L619.1714,49.4861 L628.6654,83.2351 L624.5254,83.2351 L621.8704,73.5151 L611.2064,73.5151 L608.7314,83.2351 L604.5904,83.2351 L614.2204,49.4861 Z" id="Fill-17" fill="#004A6C" mask="url(#mask-4)"></path>
            <polygon id="Fill-18" fill="#004A6C" mask="url(#mask-4)" points="632.8506 83.2349 632.8506 49.4859 636.5856 49.4859 636.5856 79.8599 650.3556 79.8599 650.3556 83.2349"></polygon>
            <path d="M517.291,122.8599 C521.341,122.9049 522.825,120.9249 522.825,116.5149 C522.87,109.8559 518.551,110.3059 514.726,110.3059 L511.395,110.3059 L511.395,122.8599 L517.291,122.8599 Z M511.395,106.9309 L514.726,106.9309 C519.27,107.1559 521.926,106.3459 521.881,101.1709 C521.881,96.9859 520.351,95.7709 514.681,95.8609 L511.395,95.8609 L511.395,106.9309 Z M507.661,126.2349 L507.661,92.4859 L517.291,92.4859 C523.411,92.3059 525.706,95.8159 525.886,100.8559 C526.02,104.5909 524.806,106.9309 520.846,108.2809 L520.846,108.3709 C525.301,108.9109 526.65,112.1509 526.696,116.2909 C526.741,122.9959 523.051,126.5059 516.571,126.2349 L507.661,126.2349 Z" id="Fill-19" fill="#004A6C" mask="url(#mask-4)"></path>
            <path d="M532.7266,92.4864 L536.4616,92.4864 L536.4616,116.7394 C536.4156,119.3954 536.8666,123.6694 542.8506,123.6694 C548.8356,123.6694 549.2866,119.3954 549.2416,116.7394 L549.2416,92.4864 L552.9756,92.4864 L552.9756,118.0904 C552.9756,124.1204 548.9706,127.0444 542.8506,127.0444 C536.7316,127.0444 532.7266,124.1204 532.7266,118.0904 L532.7266,92.4864 Z" id="Fill-20" fill="#004A6C" mask="url(#mask-4)"></path>
            <path d="M574.5752,101.3511 C574.8452,97.8411 572.9562,95.1861 569.2212,95.1861 C563.7762,95.1861 563.1902,98.6061 563.1902,101.2161 C563.1902,103.5561 564.2252,104.9961 566.3862,105.8061 C568.1852,106.4801 569.9402,107.1561 571.7412,107.8301 C578.1302,110.2151 579.3002,112.4651 579.3002,116.9201 C579.3002,123.3101 575.2962,127.0441 568.8152,127.0441 C565.4852,127.0441 561.5262,126.1001 559.5912,121.6901 C558.8712,120.0251 558.9162,117.3261 558.8712,115.5251 L562.6062,115.5251 C562.4262,120.5201 563.3712,123.6691 568.9952,123.6691 C572.7752,123.6691 575.4302,121.7351 575.4302,117.7751 C575.4302,112.6451 573.3602,112.6011 569.9402,111.2951 C568.0962,110.5761 565.1262,109.6301 563.3252,108.6851 C560.1312,107.0651 559.3212,104.3661 559.3212,101.0361 C559.3212,95.4561 563.2352,91.8111 568.7252,91.8111 C574.8902,91.8111 578.6712,95.0061 578.3092,101.3511 L574.5752,101.3511 Z" id="Fill-21" fill="#004A6C" mask="url(#mask-4)"></path>
            <polygon id="Fill-22" fill="#004A6C" mask="url(#mask-4)" points="586.006 126.235 589.741 126.235 589.741 92.486 586.006 92.486"></polygon>
            <path d="M614.3994,92.4864 L618.1344,92.4864 L618.1344,126.2354 L612.0144,126.2354 L602.5654,99.2364 C602.0254,97.7064 601.6204,96.1764 601.3054,94.1514 L601.2154,94.1514 C601.2604,95.8614 601.3054,97.6164 601.3054,99.3264 L601.3054,126.2354 L597.5714,126.2354 L597.5714,92.4864 L603.6454,92.4864 L613.2294,120.1144 C613.6354,121.1504 613.9504,122.2304 614.3994,123.8054 L614.4904,123.8054 C614.4454,122.5894 614.3994,121.2844 614.3994,120.0254 L614.3994,92.4864 Z" id="Fill-23" fill="#004A6C" mask="url(#mask-4)"></path>
            <polygon id="Fill-24" fill="#004A6C" mask="url(#mask-4)" points="624.9307 126.2349 624.9307 92.4859 641.8047 92.4859 641.8047 95.8609 628.6647 95.8609 628.6647 107.0209 640.9947 107.0209 640.9947 110.3959 628.6647 110.3959 628.6647 122.8599 641.8947 122.8599 641.8947 126.2349"></polygon>
            <path d="M662.0996,101.3511 C662.3706,97.8411 660.4796,95.1861 656.7456,95.1861 C651.2996,95.1861 650.7146,98.6061 650.7146,101.2161 C650.7146,103.5561 651.7496,104.9961 653.9106,105.8061 C655.7096,106.4801 657.4646,107.1561 659.2646,107.8301 C665.6546,110.2151 666.8246,112.4651 666.8246,116.9201 C666.8246,123.3101 662.8196,127.0441 656.3396,127.0441 C653.0096,127.0441 649.0506,126.1001 647.1156,121.6901 C646.3956,120.0251 646.4406,117.3261 646.3956,115.5251 L650.1296,115.5251 C649.9506,120.5201 650.8956,123.6691 656.5206,123.6691 C660.2996,123.6691 662.9546,121.7351 662.9546,117.7751 C662.9546,112.6451 660.8846,112.6011 657.4646,111.2951 C655.6206,110.5761 652.6506,109.6301 650.8506,108.6851 C647.6556,107.0651 646.8456,104.3661 646.8456,101.0361 C646.8456,95.4561 650.7606,91.8111 656.2496,91.8111 C662.4146,91.8111 666.1946,95.0061 665.8346,101.3511 L662.0996,101.3511 Z" id="Fill-25" fill="#004A6C" mask="url(#mask-4)"></path>
            <path d="M687.1201,101.3511 C687.3911,97.8411 685.5001,95.1861 681.7661,95.1861 C676.3211,95.1861 675.7351,98.6061 675.7351,101.2161 C675.7351,103.5561 676.7701,104.9961 678.9311,105.8061 C680.7301,106.4801 682.4851,107.1561 684.2851,107.8301 C690.6751,110.2151 691.8451,112.4651 691.8451,116.9201 C691.8451,123.3101 687.8411,127.0441 681.3601,127.0441 C678.0301,127.0441 674.0711,126.1001 672.1361,121.6901 C671.4161,120.0251 671.4611,117.3261 671.4161,115.5251 L675.1501,115.5251 C674.9711,120.5201 675.9161,123.6691 681.5411,123.6691 C685.3201,123.6691 687.9751,121.7351 687.9751,117.7751 C687.9751,112.6451 685.9051,112.6011 682.4851,111.2951 C680.6411,110.5761 677.6711,109.6301 675.8711,108.6851 C672.6761,107.0651 671.8661,104.3661 671.8661,101.0361 C671.8661,95.4561 675.7811,91.8111 681.2701,91.8111 C687.4351,91.8111 691.2151,95.0061 690.8551,101.3511 L687.1201,101.3511 Z" id="Fill-26" fill="#004A6C" mask="url(#mask-4)"></path>
            <path d="M516.6162,138.1861 L516.5262,138.1861 L512.0712,156.1401 L520.9812,156.1401 L516.6162,138.1861 Z M514.1862,135.4861 L519.1362,135.4861 L528.6302,169.2351 L524.4912,169.2351 L521.8362,159.5151 L511.1712,159.5151 L508.6962,169.2351 L504.5562,169.2351 L514.1862,135.4861 Z" id="Fill-27" fill="#004A6C" mask="url(#mask-4)"></path>
            <path d="M547.0811,144.3511 C547.3511,140.8411 545.4611,138.1861 541.7261,138.1861 C536.2811,138.1861 535.6961,141.6061 535.6961,144.2161 C535.6961,146.5561 536.7311,147.9961 538.8921,148.8061 C540.6901,149.4801 542.4461,150.1561 544.2461,150.8301 C550.6361,153.2151 551.8061,155.4651 551.8061,159.9201 C551.8061,166.3101 547.8011,170.0441 541.3211,170.0441 C537.9911,170.0441 534.0311,169.1001 532.0971,164.6901 C531.3761,163.0251 531.4211,160.3261 531.3761,158.5251 L535.1111,158.5251 C534.9311,163.5201 535.8761,166.6691 541.5011,166.6691 C545.2801,166.6691 547.9351,164.7351 547.9351,160.7751 C547.9351,155.6461 545.8661,155.6011 542.4461,154.2951 C540.6011,153.5761 537.6321,152.6301 535.8311,151.6851 C532.6361,150.0661 531.8271,147.3661 531.8271,144.0361 C531.8271,138.4561 535.7411,134.8111 541.2311,134.8111 C547.3951,134.8111 551.1761,138.0061 550.8151,144.3511 L547.0811,144.3511 Z" id="Fill-28" fill="#004A6C" mask="url(#mask-4)"></path>
            <path d="M572.1006,144.3511 C572.3706,140.8411 570.4816,138.1861 566.7466,138.1861 C561.3016,138.1861 560.7156,141.6061 560.7156,144.2161 C560.7156,146.5561 561.7506,147.9961 563.9116,148.8061 C565.7106,149.4801 567.4656,150.1561 569.2666,150.8301 C575.6556,153.2151 576.8256,155.4651 576.8256,159.9201 C576.8256,166.3101 572.8216,170.0441 566.3406,170.0441 C563.0106,170.0441 559.0516,169.1001 557.1166,164.6901 C556.3966,163.0251 556.4416,160.3261 556.3966,158.5251 L560.1316,158.5251 C559.9516,163.5201 560.8966,166.6691 566.5206,166.6691 C570.3006,166.6691 572.9556,164.7351 572.9556,160.7751 C572.9556,155.6461 570.8856,155.6011 567.4656,154.2951 C565.6216,153.5761 562.6516,152.6301 560.8506,151.6851 C557.6566,150.0661 556.8466,147.3661 556.8466,144.0361 C556.8466,138.4561 560.7606,134.8111 566.2506,134.8111 C572.4156,134.8111 576.1966,138.0061 575.8346,144.3511 L572.1006,144.3511 Z" id="Fill-29" fill="#004A6C" mask="url(#mask-4)"></path>
            <path d="M582.7666,135.4859 L586.5006,135.4859 L586.5006,159.7399 C586.4556,162.3949 586.9066,166.6699 592.8916,166.6699 C598.8756,166.6699 599.3256,162.3949 599.2806,159.7399 L599.2806,135.4859 L603.0156,135.4859 L603.0156,161.0899 C603.0156,167.1209 599.0106,170.0449 592.8916,170.0449 C586.7716,170.0449 582.7666,167.1209 582.7666,161.0899 L582.7666,135.4859 Z" id="Fill-30" fill="#004A6C" mask="url(#mask-4)"></path>
            <path d="M614.2207,151.0113 L620.1167,151.0113 C621.8697,150.9663 626.7307,150.6963 626.6407,144.8003 C626.5497,138.9953 622.0047,138.8613 619.4857,138.8613 L614.2207,138.8613 L614.2207,151.0113 Z M614.2207,169.2353 L610.4857,169.2353 L610.4857,135.4863 L619.1707,135.4863 C626.2357,135.4863 630.7357,137.3313 630.5107,145.1153 C630.3747,149.0753 627.9457,151.9103 624.0307,152.4503 L624.0307,152.5403 C628.3957,152.9453 629.4757,154.3403 630.0147,158.8403 C630.1507,161.3613 630.3747,163.8353 630.7357,166.3553 C630.8697,166.9853 631.1397,168.4703 632.0397,168.4703 L632.0397,169.2353 L627.6747,169.2353 C626.8657,167.0743 626.5047,162.8903 626.5047,160.6403 C626.5047,157.2653 625.1557,154.3853 620.7447,154.3853 L614.2207,154.3853 L614.2207,169.2353 Z" id="Fill-31" fill="#004A6C" mask="url(#mask-4)"></path>
            <path d="M646.665,138.1861 L646.575,138.1861 L642.12,156.1401 L651.03,156.1401 L646.665,138.1861 Z M644.235,135.4861 L649.186,135.4861 L658.68,169.2351 L654.54,169.2351 L651.885,159.5151 L641.221,159.5151 L638.745,169.2351 L634.606,169.2351 L644.235,135.4861 Z" id="Fill-32" fill="#004A6C" mask="url(#mask-4)"></path>
            <path d="M679.4248,135.4859 L683.1598,135.4859 L683.1598,169.2349 L677.0398,169.2349 L667.5908,142.2359 C667.0508,140.7069 666.6458,139.1759 666.3308,137.1519 L666.2398,137.1519 C666.2848,138.8609 666.3308,140.6169 666.3308,142.3259 L666.3308,169.2349 L662.5958,169.2349 L662.5958,135.4859 L668.6708,135.4859 L678.2548,163.1149 C678.6598,164.1499 678.9748,165.2299 679.4248,166.8049 L679.5148,166.8049 C679.4698,165.5899 679.4248,164.2849 679.4248,163.0249 L679.4248,135.4859 Z" id="Fill-33" fill="#004A6C" mask="url(#mask-4)"></path>
            <path d="M705.5244,145.6109 C705.4344,141.6059 704.1284,138.1859 699.4494,138.1859 C692.9694,138.1859 692.8794,147.4109 692.8794,151.8659 C692.7004,156.4559 692.6094,166.6699 699.4494,166.6699 C703.9044,166.6699 704.8494,163.0249 705.2984,159.3359 C705.3894,158.5699 705.4344,157.8049 705.5244,157.0409 L709.2584,157.0409 C709.1694,157.7149 709.1694,158.4349 709.0794,159.1109 C708.8544,161.8549 708.7184,163.9249 707.0994,166.2649 C705.3444,168.6949 703.0034,170.0449 699.7644,170.0449 C689.3704,170.0449 689.0094,160.0099 689.0094,151.9559 C689.0094,144.3509 690.1344,134.8109 699.7194,134.8109 C706.1094,134.8109 709.4394,139.5819 709.2584,145.6109 L705.5244,145.6109 Z" id="Fill-34" fill="#004A6C" mask="url(#mask-4)"></path>
            <polygon id="Fill-35" fill="#004A6C" mask="url(#mask-4)" points="714.9756 169.2349 714.9756 135.4859 731.8496 135.4859 731.8496 138.8609 718.7096 138.8609 718.7096 150.0209 731.0396 150.0209 731.0396 153.3959 718.7096 153.3959 718.7096 165.8599 731.9396 165.8599 731.9396 169.2349"></polygon>
        </g>
    </g>
</svg>